<svg width="172" height="135" viewBox="0 0 172 135" fill="none" xmlns="http://www.w3.org/2000/svg">
<path d="M167.476 97.7101C168.82 97.7101 169.913 98.607 169.913 99.7096C169.913 100.813 168.82 101.71 167.476 101.71C166.132 101.71 165.039 100.813 165.039 99.7096C165.039 98.6078 166.132 97.7101 167.476 97.7101Z" fill="black"/>
<path d="M125.693 101.709C124.347 101.709 123.256 100.814 123.256 99.7096C123.256 98.6053 124.347 97.7101 125.693 97.7101C127.039 97.7101 128.13 98.6053 128.13 99.7096C128.13 100.814 127.039 101.709 125.693 101.709Z" fill="black"/>
<path d="M146.58 97.7101C147.923 97.7101 149.017 98.607 149.017 99.7096C149.017 100.813 147.923 101.71 146.58 101.71C145.235 101.71 144.143 100.813 144.143 99.7096C144.143 98.6078 145.235 97.7101 146.58 97.7101Z" fill="black"/>
<path d="M146.929 81.4259C148.273 81.4259 149.366 82.3229 149.366 83.4254C149.366 84.5288 148.273 85.425 146.929 85.425C145.585 85.425 144.492 84.528 144.492 83.4254C144.491 82.3229 145.584 81.4259 146.929 81.4259Z" fill="black"/>
<path d="M167.822 81.4259C169.165 81.4259 170.259 82.3229 170.259 83.4254C170.259 84.5288 169.165 85.425 167.822 85.425C166.478 85.425 165.385 84.528 165.385 83.4254C165.385 82.3229 166.478 81.4259 167.822 81.4259Z" fill="black"/>
<path d="M105.148 81.4259C106.491 81.4259 107.585 82.3229 107.585 83.4254C107.585 84.5288 106.491 85.425 105.148 85.425C103.804 85.425 102.711 84.528 102.711 83.4254C102.711 82.3229 103.804 81.4259 105.148 81.4259Z" fill="black"/>
<path d="M126.039 81.4259C127.382 81.4259 128.476 82.3229 128.476 83.4254C128.476 84.5288 127.382 85.425 126.039 85.425C124.694 85.425 123.602 84.528 123.602 83.4254C123.602 82.3229 124.694 81.4259 126.039 81.4259Z" fill="black"/>
<path d="M167.476 130.28C168.82 130.28 169.913 131.177 169.913 132.279C169.913 133.383 168.82 134.28 167.476 134.28C166.132 134.28 165.039 133.383 165.039 132.279C165.039 131.177 166.132 130.28 167.476 130.28Z" fill="black"/>
<path d="M146.929 113.994C148.273 113.994 149.366 114.891 149.366 115.994C149.366 117.097 148.273 117.994 146.929 117.994C145.585 117.994 144.492 117.097 144.492 115.994C144.491 114.892 145.584 113.994 146.929 113.994Z" fill="black"/>
<path d="M167.822 113.994C169.165 113.994 170.259 114.891 170.259 115.994C170.259 117.097 169.165 117.994 167.822 117.994C166.478 117.994 165.385 117.097 165.385 115.994C165.385 114.892 166.478 113.994 167.822 113.994Z" fill="black"/>
<path d="M84.607 65.1398C85.9505 65.1398 87.0441 66.0367 87.0441 67.1393C87.0441 68.2426 85.9505 69.1388 84.607 69.1388C83.2627 69.1388 82.17 68.2419 82.17 67.1393C82.1691 66.0367 83.2627 65.1398 84.607 65.1398Z" fill="black"/>
<path d="M126.388 65.1398C127.732 65.1398 128.825 66.0367 128.825 67.1393C128.825 68.2426 127.732 69.1388 126.388 69.1388C125.044 69.1388 123.951 68.2419 123.951 67.1393C123.951 66.0367 125.044 65.1398 126.388 65.1398Z" fill="black"/>
<path d="M105.498 69.1388C104.152 69.1388 103.061 68.2436 103.061 67.1393C103.061 66.035 104.152 65.1398 105.498 65.1398C106.844 65.1398 107.935 66.035 107.935 67.1393C107.935 68.2436 106.844 69.1388 105.498 69.1388Z" fill="black"/>
<path d="M147.281 65.1398C148.624 65.1398 149.718 66.0367 149.718 67.1393C149.718 68.2426 148.624 69.1388 147.281 69.1388C145.93 69.1388 144.844 68.2419 144.844 67.1393C144.843 66.0367 145.929 65.1398 147.281 65.1398Z" fill="black"/>
<path d="M168.17 65.1398C169.513 65.1398 170.607 66.0367 170.607 67.1393C170.607 68.2426 169.513 69.1388 168.17 69.1388C166.825 69.1388 165.732 68.2419 165.732 67.1393C165.732 66.0367 166.825 65.1398 168.17 65.1398Z" fill="black"/>
<path d="M84.9528 48.8541C86.2962 48.8541 87.3898 49.7511 87.3898 50.8544C87.3898 51.9577 86.2962 52.8547 84.9528 52.8547C83.6084 52.8547 82.5157 51.9577 82.5157 50.8544C82.5157 49.7519 83.6084 48.8541 84.9528 48.8541Z" fill="black"/>
<path d="M105.845 48.8541C107.189 48.8541 108.282 49.7511 108.282 50.8544C108.282 51.9577 107.189 52.8547 105.845 52.8547C104.501 52.8547 103.408 51.9577 103.408 50.8544C103.407 49.7519 104.501 48.8541 105.845 48.8541Z" fill="black"/>
<path d="M126.736 48.8541C128.079 48.8541 129.173 49.7511 129.173 50.8544C129.173 51.9577 128.079 52.8547 126.736 52.8547C125.392 52.8547 124.299 51.9577 124.299 50.8544C124.299 49.7519 125.392 48.8541 126.736 48.8541Z" fill="black"/>
<path d="M64.0621 48.8541C65.4055 48.8541 66.4991 49.7511 66.4991 50.8544C66.4991 51.9577 65.4055 52.8547 64.0621 52.8547C62.7178 52.8547 61.625 51.9577 61.625 50.8544C61.625 49.7519 62.7178 48.8541 64.0621 48.8541Z" fill="black"/>
<path d="M168.517 48.8541C169.861 48.8541 170.954 49.7511 170.954 50.8544C170.954 51.9577 169.861 52.8547 168.517 52.8547C167.173 52.8547 166.08 51.9577 166.08 50.8544C166.079 49.7519 167.172 48.8541 168.517 48.8541Z" fill="black"/>
<path d="M147.627 48.8541C148.97 48.8541 150.064 49.7511 150.064 50.8544C150.064 51.9577 148.97 52.8547 147.627 52.8547C146.282 52.8547 145.19 51.9577 145.19 50.8544C145.19 49.7519 146.282 48.8541 147.627 48.8541Z" fill="black"/>
<path d="M168.865 32.5698C170.208 32.5698 171.302 33.4668 171.302 34.5701C171.302 35.6734 170.208 36.5697 168.865 36.5697C167.521 36.5697 166.428 35.6727 166.428 34.5701C166.427 33.4668 167.521 32.5698 168.865 32.5698Z" fill="black"/>
<path d="M85.3024 36.5689C83.9564 36.5689 82.8653 35.6737 82.8653 34.5694C82.8653 33.465 83.9564 32.5698 85.3024 32.5698C86.6483 32.5698 87.7394 33.465 87.7394 34.5694C87.7394 35.6737 86.6483 36.5689 85.3024 36.5689Z" fill="black"/>
<path d="M43.5211 36.5689C42.1752 36.5689 41.0841 35.6737 41.0841 34.5694C41.0841 33.465 42.1752 32.5698 43.5211 32.5698C44.867 32.5698 45.9581 33.465 45.9581 34.5694C45.9581 35.6737 44.867 36.5689 43.5211 36.5689Z" fill="black"/>
<path d="M106.195 32.5698C107.538 32.5698 108.632 33.4668 108.632 34.5701C108.632 35.6734 107.538 36.5697 106.195 36.5697C104.851 36.5697 103.758 35.6727 103.758 34.5701C103.757 33.4668 104.851 32.5698 106.195 32.5698Z" fill="black"/>
<path d="M127.084 32.5698C128.427 32.5698 129.521 33.4668 129.521 34.5701C129.521 35.6734 128.427 36.5697 127.084 36.5697C125.739 36.5697 124.647 35.6727 124.647 34.5701C124.647 33.4668 125.739 32.5698 127.084 32.5698Z" fill="black"/>
<path d="M147.974 32.5698C149.318 32.5698 150.411 33.4668 150.411 34.5701C150.411 35.6734 149.318 36.5697 147.974 36.5697C146.63 36.5697 145.537 35.6727 145.537 34.5701C145.537 33.4668 146.63 32.5698 147.974 32.5698Z" fill="black"/>
<path d="M64.4137 32.5698C65.7571 32.5698 66.8507 33.4668 66.8507 34.5701C66.8507 35.6734 65.7571 36.5697 64.4137 36.5697C63.0693 36.5697 61.9767 35.6727 61.9767 34.5701C61.9757 33.4668 63.0684 32.5698 64.4137 32.5698Z" fill="black"/>
<path d="M169.214 20.2832C167.869 20.2832 166.777 19.388 166.777 18.2837C166.777 17.1794 167.869 16.2842 169.214 16.2842C170.56 16.2842 171.651 17.1794 171.651 18.2837C171.651 19.388 170.56 20.2832 169.214 20.2832Z" fill="black"/>
<path d="M64.7574 16.2842C66.1008 16.2842 67.1945 17.1812 67.1945 18.2845C67.1945 19.3878 66.1008 20.284 64.7574 20.284C63.4131 20.284 62.3204 19.387 62.3204 18.2845C62.3195 17.1812 63.4131 16.2842 64.7574 16.2842Z" fill="black"/>
<path d="M148.322 16.2842C149.665 16.2842 150.759 17.1812 150.759 18.2845C150.759 19.3878 149.665 20.284 148.322 20.284C146.977 20.284 145.885 19.387 145.885 18.2845C145.885 17.1812 146.977 16.2842 148.322 16.2842Z" fill="black"/>
<path d="M106.545 16.2842C107.888 16.2842 108.982 17.1812 108.982 18.2845C108.982 19.3878 107.888 20.284 106.545 20.284C105.2 20.284 104.107 19.387 104.107 18.2845C104.107 17.1812 105.2 16.2842 106.545 16.2842Z" fill="black"/>
<path d="M127.431 16.2842C128.775 16.2842 129.868 17.1812 129.868 18.2845C129.868 19.3878 128.775 20.284 127.431 20.284C126.087 20.284 124.994 19.387 124.994 18.2845C124.993 17.1812 126.087 16.2842 127.431 16.2842Z" fill="black"/>
<path d="M85.6481 16.2842C86.9915 16.2842 88.0851 17.1812 88.0851 18.2845C88.0851 19.3878 86.9915 20.284 85.6481 20.284C84.3037 20.284 83.211 19.387 83.211 18.2845C83.211 17.1812 84.3037 16.2842 85.6481 16.2842Z" fill="black"/>
<path d="M22.9762 16.2842C24.3196 16.2842 25.4132 17.1812 25.4132 18.2845C25.4132 19.3878 24.3196 20.284 22.9762 20.284C21.6253 20.284 20.5391 19.387 20.5391 18.2845C20.5391 17.1812 21.6253 16.2842 22.9762 16.2842Z" fill="black"/>
<path d="M43.8707 16.2842C45.2141 16.2842 46.3077 17.1812 46.3077 18.2845C46.3077 19.3878 45.2141 20.284 43.8707 20.284C42.5198 20.284 41.4336 19.387 41.4336 18.2845C41.4336 17.1812 42.5198 16.2842 43.8707 16.2842Z" fill="black"/>
<path d="M148.671 3.99906C147.327 3.99906 146.234 3.10209 146.234 1.99953C146.234 0.896972 147.327 0 148.671 0C150.015 0 151.109 0.896972 151.109 1.99953C151.109 3.10285 150.016 3.99906 148.671 3.99906Z" fill="black"/>
<path d="M169.562 3.99906C168.218 3.99906 167.125 3.10209 167.125 1.99953C167.125 0.896972 168.218 0 169.562 0C170.905 0 171.999 0.896972 171.999 1.99953C171.999 3.10285 170.905 3.99906 169.562 3.99906Z" fill="black"/>
<path d="M23.3278 3.99906C21.9818 3.99906 20.8907 3.10384 20.8907 1.99953C20.8907 0.895221 21.9818 0 23.3278 0C24.6737 0 25.7648 0.895221 25.7648 1.99953C25.7648 3.10384 24.6737 3.99906 23.3278 3.99906Z" fill="black"/>
<path d="M85.9977 3.99906C84.6533 3.99906 83.5606 3.10209 83.5606 1.99953C83.5606 0.896972 84.6533 0 85.9977 0C87.3411 0 88.4347 0.896972 88.4347 1.99953C88.4347 3.10285 87.3411 3.99906 85.9977 3.99906Z" fill="black"/>
<path d="M65.107 3.99906C63.7627 3.99906 62.67 3.10209 62.67 1.99953C62.67 0.896972 63.7627 0 65.107 0C66.4505 0 67.5441 0.896972 67.5441 1.99953C67.5441 3.10285 66.4505 3.99906 65.107 3.99906Z" fill="black"/>
<path d="M44.2164 3.99906C42.8721 3.99906 41.7793 3.10209 41.7793 1.99953C41.7793 0.896972 42.8721 0 44.2164 0C45.5598 0 46.6534 0.896972 46.6534 1.99953C46.6534 3.10285 45.5598 3.99906 44.2164 3.99906Z" fill="black"/>
<path d="M127.781 3.99906C126.437 3.99906 125.344 3.10209 125.344 1.99953C125.344 0.896972 126.437 0 127.781 0C129.124 0 130.218 0.896972 130.218 1.99953C130.218 3.10285 129.124 3.99906 127.781 3.99906Z" fill="black"/>
<path d="M2.43713 3.99906C1.08623 3.99906 4.95911e-05 3.10209 4.95911e-05 1.99953C4.95911e-05 0.896972 1.08623 0 2.43713 0C3.78054 0 4.87415 0.896972 4.87415 1.99953C4.87415 3.10285 3.78054 3.99906 2.43713 3.99906Z" fill="black"/>
<path d="M106.888 3.99906C105.544 3.99906 104.451 3.10209 104.451 1.99953C104.451 0.896972 105.544 0 106.888 0C108.232 0 109.325 0.896972 109.325 1.99953C109.325 3.10285 108.232 3.99906 106.888 3.99906Z" fill="black"/>
</svg>
