<svg width="24" height="24" viewBox="0 0 24 24" fill="none" xmlns="http://www.w3.org/2000/svg">
<g clip-path="url(#clip0_193_1523)">
<path d="M12 15.75C14.0711 15.75 15.75 14.0711 15.75 12C15.75 9.92893 14.0711 8.25 12 8.25C9.92893 8.25 8.25 9.92893 8.25 12C8.25 14.0711 9.92893 15.75 12 15.75Z" stroke="#1C93CD" stroke-width="2" stroke-miterlimit="10"/>
<path d="M16.875 3H7.875C5.38972 3 3.375 5.01472 3.375 7.5V16.5C3.375 18.9853 5.38972 21 7.875 21H16.875C19.3603 21 21.375 18.9853 21.375 16.5V7.5C21.375 5.01472 19.3603 3 16.875 3Z" stroke="#1C93CD" stroke-width="2" stroke-linecap="round" stroke-linejoin="round"/>
<path d="M16.875 8.25C17.4963 8.25 18 7.74632 18 7.125C18 6.50368 17.4963 6 16.875 6C16.2537 6 15.75 6.50368 15.75 7.125C15.75 7.74632 16.2537 8.25 16.875 8.25Z" fill="#1C93CD"/>
</g>
<defs>
<clipPath id="clip0_193_1523">
<rect width="24" height="24" fill="white"/>
</clipPath>
</defs>
</svg>
