<svg width="29" height="42" viewBox="0 0 29 42" fill="none" xmlns="http://www.w3.org/2000/svg">
<path d="M3.79458 40.4794L10.9912 23.0869L13.4237 24.5301L5.5881 41.1508C5.05683 41.9871 3.48643 41.1405 3.79458 40.4794Z" fill="#95989F"/>
<path d="M4.79639 41.4937L12.653 24.2295L13.1773 24.434L5.34639 41.3896C5.14512 41.523 4.94929 41.4849 4.79639 41.4937Z" fill="#7B7D84"/>
<path d="M3.92383 41.0238L10.8646 24.6831C11.0908 24.8861 11.3311 25.0862 11.5737 25.2863L4.46524 41.4122C4.06893 41.2495 3.92383 41.0238 3.92383 41.0238Z" fill="#E1DDE5"/>
<path d="M22.9723 29.5417C21.1796 33.5774 14.6866 34.8725 8.47055 32.4339C2.25451 29.9961 -1.33094 24.7481 0.461792 20.7124C2.25452 16.6767 8.74749 15.3816 14.9635 17.8194C21.1796 20.258 24.765 25.506 22.9723 29.5417Z" fill="#FB4096"/>
<path d="M22.9549 28.5907C21.3244 32.2607 15.131 33.3249 9.12251 30.9677C3.1132 28.6112 -0.436389 23.7253 1.19407 20.0554C2.82454 16.3854 9.01797 15.3212 15.0265 17.6784C21.0358 20.0349 24.5854 24.9208 22.9549 28.5907Z" fill="#FB4096"/>
<path opacity="0.8" d="M9.81602 30.88C3.75445 28.5023 0.246241 23.4111 1.98046 19.5088C2.26131 18.877 2.66385 18.3163 3.16391 17.8281C2.27769 18.4042 1.59662 19.1504 1.19407 20.0556C-0.436389 23.7255 3.1132 28.6107 9.12251 30.9679C12.5629 32.3173 16.0617 32.5431 18.7321 31.8028C16.1327 32.3686 12.9412 32.1055 9.81602 30.88Z" fill="white"/>
<path d="M14.641 3.75C11.2389 10.936 6.89909 17.9797 6.70406 18.4188C5.68366 20.7151 7.90468 23.7716 11.6649 25.2463C15.4251 26.721 19.2992 26.0548 20.3196 23.7591C20.5146 23.3193 22.7934 15.4686 25.839 8.14191L14.641 3.75Z" fill="#FB4096"/>
<path opacity="0.3" d="M11.6442 9.66661C9.11585 14.3913 6.84491 18.103 6.70449 18.4182C6.05152 19.887 6.72633 21.6674 8.28112 23.1458C8.28112 23.1458 9.33271 21.1111 11.9415 14.5203C15.5191 5.48213 12.1739 8.66245 11.6442 9.66661Z" fill="#F4BBDE"/>
<path opacity="0.5" d="M15.631 26.0289C15.6599 26.0289 15.6887 26.0289 15.7176 26.0281C15.798 26.0274 15.8783 26.0252 15.9579 26.023C15.9821 26.0223 16.0055 26.0208 16.0297 26.0201C16.1132 26.0164 16.1951 26.012 16.277 26.0054C16.2941 26.0039 16.3113 26.0025 16.3292 26.001C16.4166 25.9937 16.5032 25.9863 16.589 25.9761C16.596 25.9753 16.6023 25.9746 16.6093 25.9739C17.8801 25.8266 18.9606 25.3875 19.6721 24.6861C20.5357 21.9873 22.4556 15.9704 24.7499 10.0349C24.753 10.0298 24.7561 10.0246 24.7593 10.0195C23.1272 10.6293 20.8353 10.5538 18.5854 9.67135C16.1529 8.71703 14.3992 7.0664 13.8336 5.4209C13.6659 5.76026 13.4974 6.09816 13.3281 6.43385C13.7954 8.28678 15.6271 10.1514 18.2444 11.1783C19.119 11.5213 19.9186 11.7405 20.6699 11.8453C18.842 16.3889 16.8745 21.4984 15.4625 25.1933C14.0411 25.3098 12.4068 25.0738 10.7919 24.4405C9.70285 24.0132 8.74408 23.4532 7.95459 22.817C8.86032 23.7831 10.135 24.6458 11.6656 25.246C12.8467 25.7093 14.038 25.9592 15.1489 26.0157L15.1481 26.0179C15.1988 26.0201 15.2488 26.0208 15.2987 26.023C15.3315 26.0245 15.3642 26.0252 15.397 26.0259C15.475 26.0281 15.553 26.0289 15.631 26.0289Z" fill="#FB4096"/>
<path d="M28.1567 9.35752C26.8773 12.2366 22.2457 13.1601 17.8115 11.4208C13.3773 9.68149 10.8192 5.93752 12.0979 3.05845C13.3773 0.179375 18.0089 -0.744158 22.4431 0.995161C26.8781 2.73448 29.4361 6.47845 28.1567 9.35752Z" fill="#FB4096"/>
<path d="M28.1433 8.6789C26.9801 11.297 22.5623 12.0564 18.2755 10.375C13.9887 8.69356 11.4564 5.20832 12.6196 2.59018C13.7827 -0.0279549 18.2006 -0.787303 22.4874 0.894112C26.7742 2.57553 29.3065 6.06076 28.1433 8.6789Z" fill="#FB4096"/>
<path opacity="0.8" d="M18.7709 10.3115C14.4466 8.61547 11.944 4.98365 13.1805 2.19986C13.381 1.74909 13.6681 1.34962 14.0246 1.00146C13.3919 1.41266 12.9067 1.94479 12.6196 2.59053C11.4564 5.20867 13.9887 8.6939 18.2755 10.3753C20.7298 11.3377 23.2254 11.4989 25.1304 10.9712C23.2769 11.3736 21.0004 11.186 18.7709 10.3115Z" fill="white"/>
</svg>
