<svg width="177" height="143" viewBox="0 0 177 143" fill="none" xmlns="http://www.w3.org/2000/svg">
<path d="M4.65435 38.9449C3.27188 38.9449 2.14648 37.9897 2.14648 36.8155C2.14648 35.6405 3.27188 34.6853 4.65435 34.6853C6.03777 34.6853 7.16221 35.6405 7.16221 36.8155C7.16221 37.9888 6.03777 38.9449 4.65435 38.9449Z" fill="black"/>
<path d="M47.6524 34.6861C49.0375 34.6861 50.1603 35.6395 50.1603 36.8155C50.1603 37.9915 49.0375 38.9449 47.6524 38.9449C46.2673 38.9449 45.1445 37.9915 45.1445 36.8155C45.1445 35.6395 46.2673 34.6861 47.6524 34.6861Z" fill="black"/>
<path d="M26.1583 38.9449C24.7758 38.9449 23.6504 37.9897 23.6504 36.8155C23.6504 35.6405 24.7758 34.6853 26.1583 34.6853C27.5417 34.6853 28.6661 35.6405 28.6661 36.8155C28.6661 37.9888 27.5417 38.9449 26.1583 38.9449Z" fill="black"/>
<path d="M25.7989 56.2864C24.4164 56.2864 23.291 55.3312 23.291 54.157C23.291 52.9821 24.4164 52.0277 25.7989 52.0277C27.1823 52.0277 28.3067 52.9829 28.3067 54.157C28.3077 55.3312 27.1833 56.2864 25.7989 56.2864Z" fill="black"/>
<path d="M4.29888 56.2864C2.91641 56.2864 1.79102 55.3312 1.79102 54.157C1.79102 52.9821 2.91641 52.0277 4.29888 52.0277C5.68231 52.0277 6.8068 52.9829 6.8068 54.157C6.8068 55.3312 5.68231 56.2864 4.29888 56.2864Z" fill="black"/>
<path d="M68.795 56.2864C67.4125 56.2864 66.2871 55.3312 66.2871 54.157C66.2871 52.9821 67.4125 52.0277 68.795 52.0277C70.1784 52.0277 71.3028 52.9829 71.3028 54.157C71.3028 55.3312 70.1784 56.2864 68.795 56.2864Z" fill="black"/>
<path d="M47.2969 56.2864C45.9145 56.2864 44.7891 55.3312 44.7891 54.157C44.7891 52.9821 45.9145 52.0277 47.2969 52.0277C48.6804 52.0277 49.8048 52.9829 49.8048 54.157C49.8048 55.3312 48.6804 56.2864 47.2969 56.2864Z" fill="black"/>
<path d="M4.65435 4.25957C3.27188 4.25957 2.14648 3.30434 2.14648 2.13019C2.14648 0.955218 3.27188 0 4.65435 0C6.03777 0 7.16221 0.955218 7.16221 2.13019C7.16221 3.30434 6.03777 4.25957 4.65435 4.25957Z" fill="black"/>
<path d="M25.7989 21.6033C24.4164 21.6033 23.291 20.6481 23.291 19.4739C23.291 18.299 24.4164 17.3438 25.7989 17.3438C27.1823 17.3438 28.3067 18.299 28.3067 19.4739C28.3077 20.6473 27.1833 21.6033 25.7989 21.6033Z" fill="black"/>
<path d="M4.29888 21.6033C2.91641 21.6033 1.79102 20.6481 1.79102 19.4739C1.79102 18.299 2.91641 17.3438 4.29888 17.3438C5.68231 17.3438 6.8068 18.299 6.8068 19.4739C6.8068 20.6473 5.68231 21.6033 4.29888 21.6033Z" fill="black"/>
<path d="M89.9317 73.6302C88.5492 73.6302 87.4238 72.6749 87.4238 71.5008C87.4238 70.3258 88.5492 69.3714 89.9317 69.3714C91.3151 69.3714 92.4396 70.3266 92.4396 71.5008C92.4405 72.6749 91.3151 73.6302 89.9317 73.6302Z" fill="black"/>
<path d="M46.9376 73.6302C45.5551 73.6302 44.4297 72.6749 44.4297 71.5008C44.4297 70.3258 45.5551 69.3714 46.9376 69.3714C48.321 69.3714 49.4454 70.3266 49.4454 71.5008C49.4454 72.6749 48.321 73.6302 46.9376 73.6302Z" fill="black"/>
<path d="M68.4356 69.3714C69.8207 69.3714 70.9435 70.3248 70.9435 71.5008C70.9435 72.6768 69.8207 73.6302 68.4356 73.6302C67.0505 73.6302 65.9277 72.6768 65.9277 71.5008C65.9277 70.3248 67.0505 69.3714 68.4356 69.3714Z" fill="black"/>
<path d="M25.4376 73.6302C24.0551 73.6302 22.9297 72.6749 22.9297 71.5008C22.9297 70.3258 24.0551 69.3714 25.4376 69.3714C26.8277 69.3714 27.9454 70.3266 27.9454 71.5008C27.9464 72.6749 26.8287 73.6302 25.4376 73.6302Z" fill="black"/>
<path d="M3.94146 73.6302C2.55899 73.6302 1.43359 72.6749 1.43359 71.5008C1.43359 70.3258 2.55899 69.3714 3.94146 69.3714C5.32488 69.3714 6.44938 70.3266 6.44938 71.5008C6.44938 72.6749 5.32488 73.6302 3.94146 73.6302Z" fill="black"/>
<path d="M89.5762 90.9734C88.1938 90.9734 87.0684 90.0182 87.0684 88.8432C87.0684 87.6683 88.1938 86.7131 89.5762 86.7131C90.9596 86.7131 92.0841 87.6683 92.0841 88.8432C92.0841 90.0174 90.9596 90.9734 89.5762 90.9734Z" fill="black"/>
<path d="M68.0762 90.9734C66.6938 90.9734 65.5684 90.0182 65.5684 88.8432C65.5684 87.6683 66.6938 86.7131 68.0762 86.7131C69.4596 86.7131 70.5841 87.6683 70.5841 88.8432C70.585 90.0174 69.4596 90.9734 68.0762 90.9734Z" fill="black"/>
<path d="M46.5782 90.9734C45.1957 90.9734 44.0703 90.0182 44.0703 88.8432C44.0703 87.6683 45.1957 86.7131 46.5782 86.7131C47.9616 86.7131 49.0861 87.6683 49.0861 88.8432C49.0861 90.0174 47.9616 90.9734 46.5782 90.9734Z" fill="black"/>
<path d="M111.074 90.9734C109.692 90.9734 108.566 90.0182 108.566 88.8432C108.566 87.6683 109.692 86.7131 111.074 86.7131C112.458 86.7131 113.582 87.6683 113.582 88.8432C113.582 90.0174 112.458 90.9734 111.074 90.9734Z" fill="black"/>
<path d="M3.58403 90.9734C2.20157 90.9734 1.07617 90.0182 1.07617 88.8432C1.07617 87.6683 2.20157 86.7131 3.58403 86.7131C4.96746 86.7131 6.0919 87.6683 6.0919 88.8432C6.09286 90.0174 4.96842 90.9734 3.58403 90.9734Z" fill="black"/>
<path d="M25.0801 90.9734C23.6977 90.9734 22.5723 90.0182 22.5723 88.8432C22.5723 87.6683 23.6977 86.7131 25.0801 86.7131C26.4636 86.7131 27.5881 87.6683 27.5881 88.8432C27.5881 90.0174 26.4636 90.9734 25.0801 90.9734Z" fill="black"/>
<path d="M3.22466 108.315C1.8422 108.315 0.716797 107.36 0.716797 106.185C0.716797 105.01 1.8422 104.055 3.22466 104.055C4.60809 104.055 5.73258 105.011 5.73258 106.185C5.73354 107.36 4.60809 108.315 3.22466 108.315Z" fill="black"/>
<path d="M89.2168 104.056C90.6019 104.056 91.7248 105.01 91.7248 106.186C91.7248 107.362 90.6019 108.315 89.2168 108.315C87.8318 108.315 86.709 107.362 86.709 106.186C86.709 105.01 87.8318 104.056 89.2168 104.056Z" fill="black"/>
<path d="M132.213 104.056C133.598 104.056 134.721 105.01 134.721 106.186C134.721 107.362 133.598 108.315 132.213 108.315C130.828 108.315 129.705 107.362 129.705 106.186C129.705 105.01 130.828 104.056 132.213 104.056Z" fill="black"/>
<path d="M67.7168 108.315C66.3344 108.315 65.209 107.36 65.209 106.185C65.209 105.01 66.3344 104.055 67.7168 104.055C69.1003 104.055 70.2248 105.011 70.2248 106.185C70.2257 107.36 69.1003 108.315 67.7168 108.315Z" fill="black"/>
<path d="M46.2208 108.315C44.8383 108.315 43.7129 107.36 43.7129 106.185C43.7129 105.01 44.8383 104.055 46.2208 104.055C47.6042 104.055 48.7287 105.011 48.7287 106.185C48.7287 107.36 47.6042 108.315 46.2208 108.315Z" fill="black"/>
<path d="M24.7227 108.315C23.3402 108.315 22.2148 107.36 22.2148 106.185C22.2148 105.01 23.3402 104.055 24.7227 104.055C26.1061 104.055 27.2306 105.011 27.2306 106.185C27.2306 107.36 26.1061 108.315 24.7227 108.315Z" fill="black"/>
<path d="M110.713 108.315C109.33 108.315 108.205 107.36 108.205 106.185C108.205 105.01 109.33 104.055 110.713 104.055C112.096 104.055 113.221 105.011 113.221 106.185C113.222 107.36 112.097 108.315 110.713 108.315Z" fill="black"/>
<path d="M2.86529 121.4C4.25035 121.4 5.37321 122.353 5.37321 123.529C5.37321 124.705 4.25035 125.659 2.86529 125.659C1.48022 125.659 0.357422 124.705 0.357422 123.529C0.357422 122.353 1.48022 121.4 2.86529 121.4Z" fill="black"/>
<path d="M110.359 125.659C108.977 125.659 107.852 124.704 107.852 123.529C107.852 122.354 108.977 121.399 110.359 121.399C111.743 121.399 112.867 122.354 112.867 123.529C112.868 124.704 111.743 125.659 110.359 125.659Z" fill="black"/>
<path d="M24.3653 125.659C22.9829 125.659 21.8574 124.704 21.8574 123.529C21.8574 122.354 22.9829 121.399 24.3653 121.399C25.7488 121.399 26.8732 122.354 26.8732 123.529C26.8732 124.704 25.7488 125.659 24.3653 125.659Z" fill="black"/>
<path d="M67.3575 125.659C65.975 125.659 64.8496 124.704 64.8496 123.529C64.8496 122.354 65.975 121.399 67.3575 121.399C68.7409 121.399 69.8654 122.354 69.8654 123.529C69.8654 124.704 68.7409 125.659 67.3575 125.659Z" fill="black"/>
<path d="M45.8633 125.659C44.4809 125.659 43.3555 124.704 43.3555 123.529C43.3555 122.354 44.4809 121.399 45.8633 121.399C47.2468 121.399 48.3713 122.354 48.3713 123.529C48.3722 124.704 47.2468 125.659 45.8633 125.659Z" fill="black"/>
<path d="M88.8614 125.659C87.4789 125.659 86.3535 124.704 86.3535 123.529C86.3535 122.354 87.4789 121.399 88.8614 121.399C90.2448 121.399 91.3693 122.354 91.3693 123.529C91.3693 124.704 90.2448 125.659 88.8614 125.659Z" fill="black"/>
<path d="M153.356 125.658C151.973 125.658 150.848 124.702 150.848 123.527C150.848 122.352 151.973 121.398 153.356 121.398C154.746 121.398 155.863 122.353 155.863 123.527C155.863 124.702 154.746 125.658 153.356 125.658Z" fill="black"/>
<path d="M131.854 125.659C130.471 125.659 129.346 124.704 129.346 123.529C129.346 122.354 130.471 121.399 131.854 121.399C133.244 121.399 134.361 122.354 134.361 123.529C134.361 124.704 133.244 125.659 131.854 125.659Z" fill="black"/>
<path d="M24.006 138.742C25.3894 138.742 26.5138 139.697 26.5138 140.871C26.5138 142.045 25.3894 143 24.006 143C22.6235 143 21.498 142.045 21.498 140.871C21.4971 139.696 22.6225 138.742 24.006 138.742Z" fill="black"/>
<path d="M2.50792 138.742C3.89135 138.742 5.01579 139.697 5.01579 140.871C5.01579 142.045 3.89135 143 2.50792 143C1.12546 143 0 142.045 0 140.871C0 139.696 1.12546 138.742 2.50792 138.742Z" fill="black"/>
<path d="M152.994 138.741C154.379 138.741 155.502 139.694 155.502 140.87C155.502 142.046 154.379 142.999 152.994 142.999C151.609 142.999 150.486 142.046 150.486 140.87C150.486 139.694 151.609 138.741 152.994 138.741Z" fill="black"/>
<path d="M88.502 138.742C89.8854 138.742 91.0099 139.697 91.0099 140.871C91.0099 142.045 89.8854 143 88.502 143C87.1195 143 85.9941 142.045 85.9941 140.871C85.9941 139.696 87.1195 138.742 88.502 138.742Z" fill="black"/>
<path d="M110 138.742C111.383 138.742 112.508 139.697 112.508 140.871C112.508 142.045 111.383 143 110 143C108.618 143 107.492 142.045 107.492 140.871C107.492 139.696 108.618 138.742 110 138.742Z" fill="black"/>
<path d="M131.498 138.742C132.882 138.742 134.006 139.697 134.006 140.871C134.006 142.045 132.882 143 131.498 143C130.116 143 128.99 142.045 128.99 140.871C128.99 139.696 130.116 138.742 131.498 138.742Z" fill="black"/>
<path d="M45.504 138.742C46.8874 138.742 48.0119 139.697 48.0119 140.871C48.0119 142.045 46.8874 143 45.504 143C44.1215 143 42.9961 142.045 42.9961 140.871C42.9961 139.696 44.1215 138.742 45.504 138.742Z" fill="black"/>
<path d="M174.49 138.741C175.88 138.741 176.998 139.696 176.998 140.87C176.998 142.044 175.88 142.999 174.49 142.999C173.108 142.999 171.982 142.044 171.982 140.87C171.982 139.695 173.108 138.741 174.49 138.741Z" fill="black"/>
<path d="M67.004 138.742C68.3874 138.742 69.5119 139.697 69.5119 140.871C69.5119 142.045 68.3874 143 67.004 143C65.6216 143 64.4961 142.045 64.4961 140.871C64.4961 139.696 65.6216 138.742 67.004 138.742Z" fill="black"/>
</svg>
