<svg width="728" height="326" viewBox="0 0 728 326" fill="none" xmlns="http://www.w3.org/2000/svg">
<path opacity="0.25" d="M877.209 -819L905.65 -403.995L1025.59 -809.363L961.714 -396.66L1169.71 -780.728L1015.35 -382.199L1305.41 -733.919L1065.01 -361.03L1428.79 -670.284L1109.26 -333.761L1536.3 -591.652L1146.84 -301.177L1624.85 -500.286L1176.67 -264.215L1691.9 -398.814L1197.87 -223.938L1735.5 -290.155L1209.86 -181.506L1754.42 -177.436L1212.27 -138.139L1748.1 -63.8981L1205.05 -95.0836L1716.72 47.1913L1188.39 -53.5796L1661.2 152.636L1162.78 -14.8207L1583.12 249.404L1128.96 20.0781L1484.73 334.711L1087.89 50.1128L1368.87 406.101L1040.77 74.4194L1238.86 461.523L988.933 92.2986L1098.45 499.381L933.886 103.236L951.668 518.586L877.209 106.917L802.749 518.586L820.532 103.236L655.972 499.381L765.485 92.2986L515.56 461.523L713.652 74.4194L385.551 406.101L666.525 50.1128L269.687 334.711L625.459 20.0781L171.299 249.404L591.635 -14.8207L93.22 152.636L566.026 -53.5796L37.6945 47.1913L549.37 -95.0836L6.32025 -63.8981L542.145 -138.139L0 -177.436L544.559 -181.506L18.9153 -290.155L556.543 -223.938L62.5223 -398.814L577.752 -264.215L129.566 -500.286L607.575 -301.177L218.119 -591.652L645.156 -333.761L325.632 -670.284L689.412 -361.03L449.013 -733.919L739.071 -382.199L584.712 -780.728L792.704 -396.66L728.826 -809.363L848.768 -403.995L877.209 -819Z" fill="white" fill-opacity="0.19"/>
</svg>
